# xmcd
#
# Track frame offsets: 
#        180
#        54380
#        67700
#        86650
#        101150
#        132065
#        149047
#        208355
#        237082
#        258680
#
# Disc length: 3765 seconds
#
# Revision: 1
# Processed by: cddbd v1.5.2PL0 Copyright (c) Steve Scherf et al.
# Submitted via: ExactAudioCopy v0.99pb5
#
DISCID=950eb30a
DTITLE=Eric Clapton - Cradle Music -  Disc 2
DYEAR=1995
DGENRE=Blues
TTITLE0=Early In The Morning (Smokey Floyd)
TTITLE1=Cant Judge Nobody (Smokey Floyd)
TTITLE2=Someday After A While (Freddie King)
TTITLE3=Tore Down (Billy Myles)
TTITLE4=Have You Ever Loved A Woman (Billy Myles)
TTITLE5=Cross Cut Saw (Muddy Waters)
TTITLE6=Have You Ever Been Mistreated (Robert Johnson)
TTITLE7=Crossroads (Robert Johnson)
TTITLE8=Got My Mojo Workin' (Eddie Boyd)
TTITLE9=Aint Nobodys Business (Clapton)
EXTD=
EXTT0=
EXTT1=
EXTT2=
EXTT3=
EXTT4=
EXTT5=
EXTT6=
EXTT7=
EXTT8=
EXTT9=
PLAYORDER=
